<svg width="826" height="251" viewBox="0 0 826 251" fill="none" xmlns="http://www.w3.org/2000/svg">
<path d="M184.653 179.102L133.829 229.053L143.606 250.085L205.013 188.632V40.0926L235.223 69.9977L242.612 62.6036L250 55.2094L194.833 8.00529e-05L139.666 55.5381L154.443 70.3263L184.653 40.0926V179.102Z" fill="#DCFF0F"/>
<path d="M20.3593 50.2803H0V119.456V188.632L61.4961 250.086L143.606 250.085L133.829 229.053L70.9291 229.054L20.3593 178.116V50.2803Z" fill="black"/>
<path d="M287.109 212.719C278.307 212.719 271.276 209.906 266.016 204.281C260.755 198.604 258.125 190.557 258.125 180.141V128.5H281.172V175.922C281.172 181.443 282.474 185.661 285.078 188.578C287.734 191.443 291.484 192.875 296.328 192.875C301.068 192.875 304.948 191.391 307.969 188.422C310.99 185.453 312.5 180.766 312.5 174.359V128.5H335.469V211H312.891V198.031C310.078 202.719 306.562 206.339 302.344 208.891C298.125 211.443 293.047 212.719 287.109 212.719ZM350.275 243.656V128.5H373.009V139.672H373.244C375.796 135.401 379.155 132.198 383.322 130.062C387.541 127.875 392.332 126.781 397.697 126.781C404.728 126.781 410.9 128.604 416.213 132.25C421.577 135.844 425.744 140.87 428.713 147.328C431.733 153.786 433.244 161.234 433.244 169.672C433.244 178.266 431.759 185.792 428.791 192.25C425.822 198.708 421.655 203.734 416.291 207.328C410.978 210.922 404.728 212.719 397.541 212.719C386.343 212.719 378.348 208.031 373.556 198.656H373.322V243.656H350.275ZM391.603 193.969C397.176 193.969 401.629 191.859 404.963 187.641C408.348 183.37 410.041 177.38 410.041 169.672C410.041 161.964 408.348 156 404.963 151.781C401.629 147.51 397.176 145.375 391.603 145.375C385.77 145.375 381.082 147.589 377.541 152.016C373.999 156.443 372.228 162.328 372.228 169.672C372.228 177.068 373.999 182.979 377.541 187.406C381.082 191.781 385.77 193.969 391.603 193.969ZM481.956 212.875C473.623 212.875 466.357 211.026 460.159 207.328C454.014 203.63 449.222 198.552 445.784 192.094C442.399 185.583 440.706 178.161 440.706 169.828C440.706 161.443 442.425 153.995 445.863 147.484C449.352 140.974 454.144 135.87 460.238 132.172C466.331 128.474 473.31 126.625 481.175 126.625C489.3 126.625 496.383 128.448 502.425 132.094C508.519 135.688 513.258 140.714 516.644 147.172C520.081 153.578 521.8 160.974 521.8 169.359V175.531H463.128C463.336 181.625 465.133 186.495 468.519 190.141C471.904 193.786 476.618 195.609 482.659 195.609C487.139 195.609 490.863 194.646 493.831 192.719C496.852 190.792 498.883 188.24 499.925 185.062H520.941C519.951 190.531 517.633 195.349 513.988 199.516C510.342 203.682 505.758 206.964 500.238 209.359C494.717 211.703 488.623 212.875 481.956 212.875ZM463.284 160.844H500.081C499.508 155.688 497.581 151.625 494.3 148.656C491.071 145.635 486.852 144.125 481.644 144.125C476.488 144.125 472.295 145.635 469.066 148.656C465.836 151.625 463.909 155.688 463.284 160.844ZM555.591 165.141V211H532.544V128.5H555.2V141.469C558.013 136.781 561.528 133.161 565.747 130.609C569.966 128.057 575.044 126.781 580.981 126.781C589.731 126.781 596.736 129.62 601.997 135.297C607.257 140.922 609.888 148.943 609.888 159.359V211H586.919V163.578C586.919 158.057 585.591 153.865 582.934 151C580.278 148.083 576.554 146.625 571.763 146.625C567.023 146.625 563.143 148.109 560.122 151.078C557.101 154.047 555.591 158.734 555.591 165.141ZM658.991 213.031C648.261 213.031 639.381 210.583 632.35 205.688C625.371 200.792 621.517 193.917 620.788 185.062H643.444C643.86 188.656 645.371 191.469 647.975 193.5C650.579 195.531 654.121 196.547 658.6 196.547C662.871 196.547 666.23 195.74 668.678 194.125C671.126 192.51 672.35 190.427 672.35 187.875C672.35 185.688 671.386 183.943 669.459 182.641C667.584 181.286 664.98 180.271 661.647 179.594L647.194 176.781C630.84 173.656 622.663 165.635 622.663 152.719C622.663 144.906 625.814 138.63 632.116 133.891C638.418 129.151 646.933 126.781 657.663 126.781C668.34 126.781 676.933 129.281 683.444 134.281C689.954 139.281 693.314 146.078 693.522 154.672H672.194C672.142 151.391 670.814 148.656 668.209 146.469C665.657 144.229 662.35 143.109 658.288 143.109C654.329 143.109 651.23 143.969 648.991 145.688C646.751 147.354 645.631 149.411 645.631 151.859C645.631 153.995 646.491 155.74 648.209 157.094C649.98 158.448 652.454 159.464 655.631 160.141L671.256 163.188C679.59 164.802 685.709 167.458 689.616 171.156C693.574 174.802 695.553 179.672 695.553 185.766C695.553 191.234 693.991 196.026 690.866 200.141C687.793 204.203 683.496 207.38 677.975 209.672C672.506 211.911 666.178 213.031 658.991 213.031ZM744.031 212.875C735.698 212.875 728.432 211.026 722.234 207.328C716.089 203.63 711.297 198.552 707.859 192.094C704.474 185.583 702.781 178.161 702.781 169.828C702.781 161.443 704.5 153.995 707.938 147.484C711.427 140.974 716.219 135.87 722.312 132.172C728.406 128.474 735.385 126.625 743.25 126.625C751.375 126.625 758.458 128.448 764.5 132.094C770.594 135.688 775.333 140.714 778.719 147.172C782.156 153.578 783.875 160.974 783.875 169.359V175.531H725.203C725.411 181.625 727.208 186.495 730.594 190.141C733.979 193.786 738.693 195.609 744.734 195.609C749.214 195.609 752.938 194.646 755.906 192.719C758.927 190.792 760.958 188.24 762 185.062H783.016C782.026 190.531 779.708 195.349 776.062 199.516C772.417 203.682 767.833 206.964 762.312 209.359C756.792 211.703 750.698 212.875 744.031 212.875ZM725.359 160.844H762.156C761.583 155.688 759.656 151.625 756.375 148.656C753.146 145.635 748.927 144.125 743.719 144.125C738.562 144.125 734.37 145.635 731.141 148.656C727.911 151.625 725.984 155.688 725.359 160.844ZM806.025 212.406C802.379 212.406 799.254 211.13 796.65 208.578C794.098 205.974 792.822 202.823 792.822 199.125C792.822 195.479 794.098 192.354 796.65 189.75C799.254 187.146 802.379 185.844 806.025 185.844C809.723 185.844 812.848 187.146 815.4 189.75C818.004 192.354 819.306 195.479 819.306 199.125C819.306 202.823 818.004 205.974 815.4 208.578C812.848 211.13 809.723 212.406 806.025 212.406Z" fill="black"/>
</svg>
